<?xml version="1.0" encoding="utf-8"?><svg width="640" height="640" version="1.1" xmlns="http://www.w3.org/2000/svg" xmlns:xlink="http://www.w3.org/1999/xlink"><defs><g class="styles"/><g class="clip-paths"/><g/></defs><rect width="100%" height="100%" fill="#3D5467" class="ogma-svg-background" fill-opacity="1"/><g><g class="ogma-edges"><g data-edge-id="e1" class="ogma-edge"><path d="M474.8817679674844,290.4417826419013 L477.6679146132963,318.3032491000206 L504.1363077485097,301.586369225149 Z" fill="rgb(136,136,136)" fill-opacity="1"/><path d="M 86.66666666666666,343.3333333333333 L553.3333333333334,296.6666666666667" stroke-width="9.333475750871036" stroke="rgb(136,136,136)" stroke-opacity="1" stroke-dasharray="0,48.667,343.885,0,0,76.443"/><path d="M 333.540605035488 313.4060503548802     A 5 5 0 0 0 338.540605035488 308.4060503548802     L 338.540605035488 302.4060503548802     A 5 5 0 0 0 333.540605035488 297.4060503548802     L 303.540605035488 297.4060503548802     A 5 5 0 0 0 298.540605035488 302.4060503548802     L 298.540605035488 308.4060503548802     A 5 5 0 0 0 303.540605035488 313.4060503548802     L 333.540605035488 313.4060503548802" fill="rgb(0,0,0)" transform="rotate(-5.710593137499633 318.540605035488 305.4060503548802)" fill-opacity="1"/><g data-text-component="true" class="edge-text" font-family="Iosevka" font-size="12" font-style="normal" fill="rgb(255,255,255)" fill-opacity="1" transform="rotate(-5.710593137499638 318.540605035488, 306.4060503548802)" text-anchor="middle" dominant-baseline="middle"><text x="318.541" y="306.4060503548802">knows</text></g></g></g><g class="ogma-nodes"><g data-node-id="n0" class="ogma-node"><path d="M 39.999999999999986, 343.3333333333333 a 46.66666666666667,46.66666666666667 0 1,0 93.33333333333334,0 a 46.66666666666667,46.66666666666667 0 1,0 -93.33333333333334,0" fill="rgb(136,136,136)" fill-opacity="1"/><path d="M 38.999999999999986, 343.3333333333333 a 47.66666666666667,47.66666666666667 0 1,0 95.33333333333334,0 a 47.66666666666667,47.66666666666667 0 1,0 -95.33333333333334,0" fill="none" stroke-width="2" stroke="rgb(255,255,255)" stroke-opacity="1"/></g><g data-node-id="n1" class="ogma-node"><path d="M 506.6666666666667, 296.6666666666667 a 46.66666666666667,46.66666666666667 0 1,0 93.33333333333334,0 a 46.66666666666667,46.66666666666667 0 1,0 -93.33333333333334,0" fill="rgb(136,136,136)" fill-opacity="1"/><path d="M 505.6666666666667, 296.6666666666667 a 47.66666666666667,47.66666666666667 0 1,0 95.33333333333334,0 a 47.66666666666667,47.66666666666667 0 1,0 -95.33333333333334,0" fill="none" stroke-width="2" stroke="rgb(255,255,255)" stroke-opacity="1"/><path d="M 571.8333333333334 368.33404542102187     A 5 5 0 0 0 576.8333333333334 363.33404542102187     L 576.8333333333334 355.33404542102187     A 5 5 0 0 0 571.8333333333334 350.33404542102187     L 534.8333333333334 350.33404542102187     A 5 5 0 0 0 529.8333333333334 355.33404542102187     L 529.8333333333334 363.33404542102187     A 5 5 0 0 0 534.8333333333334 368.33404542102187     L 571.8333333333334 368.33404542102187" fill="rgb(0,0,0)" transform="rotate(0 553.3333333333334 359.33404542102187)" fill-opacity="1"/><path d="M549.8333333333334,350.8340454210218 L556.8333333333334,350.8340454210218 L553.3333333333334,343.8340454210218 Z" fill="rgb(0,0,0)" data-text-component="true" fill-opacity="1"/><g data-text-component="true" class="node-text" font-family="Iosevka" font-size="12" font-style="normal" fill="rgb(255,255,255)" fill-opacity="1" text-anchor="middle" dominant-baseline="middle"><text x="553.333" y="360.33404542102187">node 1</text></g></g></g></g></svg>