<?xml version="1.0" encoding="utf-8"?><svg width="640" height="640" version="1.1" xmlns="http://www.w3.org/2000/svg" xmlns:xlink="http://www.w3.org/1999/xlink"><defs><g class="styles"/><g class="clip-paths"/><g/></defs><rect width="100%" height="100%" fill="#3D5467" class="ogma-svg-background" fill-opacity="1"/><g><g class="ogma-edges"><g data-edge-id="e1" class="ogma-edge"><path d="M476.64797893189916,290.2651615454598 L479.4341255777111,318.1266280035792 L505.90251871292446,301.4097481287075 Z" fill="rgb(136,136,136)" fill-opacity="1"/><path d="M 86.6666666666666,343.3333333333333 L553.3333333333334,296.6666666666667" stroke-width="9.333475750871038" stroke="rgb(136,136,136)" stroke-opacity="1" stroke-dasharray="394.326,0,0,74.668"/><path d="M 332.040605035488 313.4060503548802     A 4 4 0 0 0 336.040605035488 309.4060503548802     L 336.040605035488 301.4060503548802     A 4 4 0 0 0 332.040605035488 297.4060503548802     L 305.040605035488 297.4060503548802     A 4 4 0 0 0 301.040605035488 301.4060503548802     L 301.040605035488 309.4060503548802     A 4 4 0 0 0 305.040605035488 313.4060503548802     L 332.040605035488 313.4060503548802" fill="rgb(0,0,0)" transform="rotate(-5.710593137499633 318.540605035488 305.4060503548802)" fill-opacity="1"/><g data-text-component="true" class="edge-text" font-family="Iosevka" font-size="12" font-style="normal" fill="rgb(255,255,255)" fill-opacity="1" transform="rotate(-5.710593137499638 318.540605035488, 305.4060503548802)" text-anchor="middle"><text x="318.541" y="309.406">knows</text></g></g></g><g class="ogma-nodes"><g data-node-id="n0" class="ogma-node"><path d="M 39.99928791231141, 343.3333333333333 a 46.66737875435519,46.66737875435519 0 1,0 93.33475750871038,0 a 46.66737875435519,46.66737875435519 0 1,0 -93.33475750871038,0" fill="rgb(136,136,136)" fill-opacity="1"/><path d="M 38.99928791231141, 343.3333333333333 a 47.66737875435519,47.66737875435519 0 1,0 95.33475750871038,0 a 47.66737875435519,47.66737875435519 0 1,0 -95.33475750871038,0" fill="none" stroke-width="2" stroke="rgb(255,255,255)" stroke-opacity="1"/></g><g data-node-id="n1" class="ogma-node"><path d="M 506.6659545789782, 296.6666666666667 a 46.66737875435519,46.66737875435519 0 1,0 93.33475750871038,0 a 46.66737875435519,46.66737875435519 0 1,0 -93.33475750871038,0" fill="rgb(136,136,136)" fill-opacity="1"/><path d="M 505.6659545789782, 296.6666666666667 a 47.66737875435519,47.66737875435519 0 1,0 95.33475750871038,0 a 47.66737875435519,47.66737875435519 0 1,0 -95.33475750871038,0" fill="none" stroke-width="2" stroke="rgb(255,255,255)" stroke-opacity="1"/><path d="M 569.3333333333334 366.33404542102187     A 4 4 0 0 0 573.3333333333334 362.33404542102187     L 573.3333333333334 354.33404542102187     A 4 4 0 0 0 569.3333333333334 350.33404542102187     L 537.3333333333334 350.33404542102187     A 4 4 0 0 0 533.3333333333334 354.33404542102187     L 533.3333333333334 362.33404542102187     A 4 4 0 0 0 537.3333333333334 366.33404542102187     L 569.3333333333334 366.33404542102187" fill="rgb(0,0,0)" transform="rotate(0 553.3333333333334 358.33404542102187)" fill-opacity="1"/><path d="M549.8333333333334,350.8340454210218 L556.8333333333334,350.8340454210218 L553.3333333333334,343.8340454210218 Z" fill="rgb(0,0,0)" data-text-component="true" fill-opacity="1"/><g data-text-component="true" class="node-text" font-family="Iosevka" font-size="12" font-style="normal" fill="rgb(255,255,255)" fill-opacity="1" text-anchor="middle"><text x="553.333" y="362.334">node 1</text></g></g></g></g></svg>